<svg width="20" height="20" viewBox="0 0 20 20" fill="none" xmlns="http://www.w3.org/2000/svg">
<path fill-rule="evenodd" clip-rule="evenodd" d="M8.97368 2.83203H11.0262C12.0951 2.83203 12.9331 2.83202 13.6025 2.89568C14.2849 2.96056 14.8436 3.09508 15.3362 3.39691C15.852 3.71299 16.2856 4.14666 16.6017 4.66245C16.9035 5.155 17.0381 5.71374 17.1029 6.3961C17.1666 7.06556 17.1666 7.90353 17.1666 8.97245V9.68393C17.1666 10.4448 17.1666 11.0413 17.1337 11.5233C17.1003 12.0136 17.0311 12.4216 16.8748 12.799C16.4857 13.7383 15.7395 14.4845 14.8002 14.8736C14.2636 15.0959 13.6523 15.1452 12.8155 15.1596C12.5227 15.1646 12.3373 15.1683 12.196 15.184C12.0639 15.1986 12.0127 15.22 11.9827 15.2375C11.9511 15.2559 11.9081 15.2894 11.8333 15.3919C11.7524 15.5029 11.661 15.6564 11.516 15.9013L11.1546 16.5118C10.0002 18.5 9.83234 18.1796 8.84518 16.5118C7.85802 14.8441 8.48378 15.9013 8.48378 15.9013C8.33882 15.6564 8.2474 15.5029 8.16649 15.3919C8.09173 15.2894 8.04867 15.2559 8.01707 15.2375C7.98711 15.22 7.93591 15.1986 7.80384 15.184C7.6625 15.1683 7.47709 15.1646 7.18436 15.1596C6.3475 15.1452 5.73628 15.0959 5.19963 14.8736C4.26036 14.4845 3.51411 13.7383 3.12505 12.799C2.96874 12.4216 2.89958 12.0136 2.86613 11.5233C2.83325 11.0413 2.83325 10.4448 2.83325 9.68392L2.83325 8.97246C2.83325 7.90354 2.83324 7.06556 2.8969 6.3961C2.96178 5.71374 3.0963 5.155 3.39813 4.66245C3.71421 4.14666 4.14788 3.71299 4.66367 3.39691C5.15622 3.09508 5.71496 2.96056 6.39732 2.89568C7.06678 2.83202 7.90476 2.83203 8.97368 2.83203ZM6.49198 3.89119C5.88281 3.94911 5.49519 4.06019 5.18617 4.24955C4.80493 4.48318 4.4844 4.80371 4.25077 5.18495C4.06141 5.49397 3.95033 5.88159 3.89241 6.49076C3.83378 7.10737 3.83325 7.89787 3.83325 8.9987V9.66536C3.83325 10.4488 3.83352 11.0113 3.86381 11.4552C3.89379 11.8946 3.9515 12.1811 4.04893 12.4163C4.33649 13.1105 4.88807 13.6621 5.58232 13.9497C5.92607 14.0921 6.36463 14.1453 7.20159 14.1597L7.2228 14.1601C7.48813 14.1647 7.72064 14.1687 7.9139 14.1901C8.12156 14.2131 8.32465 14.2595 8.51983 14.373C8.71335 14.4856 8.85294 14.636 8.97462 14.8029C9.08707 14.9572 9.20262 15.1525 9.3335 15.3736L9.70573 16.0025C9.83424 16.2196 10.1656 16.2196 10.2941 16.0025L10.6663 15.3736C10.7972 15.1525 10.9127 14.9572 11.0252 14.8029C11.1469 14.636 11.2865 14.4856 11.48 14.373C11.6752 14.2595 11.8782 14.2131 12.0859 14.1901C12.2792 14.1687 12.5117 14.1647 12.777 14.1601L12.7982 14.1597C13.6352 14.1453 14.0738 14.0921 14.4175 13.9497C15.1118 13.6621 15.6633 13.1105 15.9509 12.4163C16.0483 12.1811 16.106 11.8946 16.136 11.4552C16.1663 11.0113 16.1666 10.4488 16.1666 9.66536V8.9987C16.1666 7.89787 16.1661 7.10737 16.1074 6.49076C16.0495 5.88159 15.9384 5.49397 15.7491 5.18495C15.5154 4.80371 15.1949 4.48318 14.8137 4.24955C14.5046 4.06019 14.117 3.94911 13.5079 3.89119C12.8913 3.83256 12.1007 3.83203 10.9999 3.83203H8.99992C7.89909 3.83203 7.10859 3.83256 6.49198 3.89119Z" fill="#1C212B"/>
<path d="M9.5252 8.23603C9.73631 7.85732 9.84186 7.66797 9.99967 7.66797C10.1575 7.66797 10.263 7.85732 10.4741 8.23603L10.5288 8.33401C10.5888 8.44162 10.6187 8.49543 10.6655 8.53094C10.7123 8.56644 10.7705 8.57962 10.887 8.60598L10.9931 8.62997C11.403 8.72273 11.608 8.76911 11.6568 8.92592C11.7055 9.08274 11.5658 9.24615 11.2863 9.57296L11.214 9.65751C11.1346 9.75037 11.0949 9.79681 11.077 9.85425C11.0592 9.9117 11.0652 9.97365 11.0772 10.0976L11.0881 10.2104C11.1304 10.6464 11.1515 10.8644 11.0238 10.9613C10.8961 11.0583 10.7042 10.9699 10.3204 10.7932L10.2211 10.7474C10.112 10.6972 10.0575 10.6721 9.99967 10.6721C9.94187 10.6721 9.88733 10.6972 9.77826 10.7474L9.67895 10.7932C9.29512 10.9699 9.1032 11.0583 8.97553 10.9613C8.84786 10.8644 8.86899 10.6464 8.91124 10.2104L8.92217 10.0976C8.93418 9.97365 8.94018 9.9117 8.92232 9.85425C8.90445 9.79681 8.86475 9.75037 8.78533 9.65751L8.71302 9.57296C8.43355 9.24615 8.29381 9.08274 8.34258 8.92592C8.39134 8.76911 8.59632 8.72273 9.00626 8.62997L9.11232 8.60598C9.22882 8.57962 9.28706 8.56644 9.33383 8.53094C9.3806 8.49543 9.4106 8.44162 9.47059 8.33401L9.5252 8.23603Z" fill="#1C212B" stroke="#1C212B" stroke-width="0.466667"/>
<path d="M9.99951 6V6.66667" stroke="#1C212B" stroke-width="0.466667" stroke-linecap="round"/>
<path d="M9.99951 12V12.6667" stroke="#1C212B" stroke-width="0.466667" stroke-linecap="round"/>
<path d="M6.66626 9.33203L7.33293 9.33203" stroke="#1C212B" stroke-width="0.466667" stroke-linecap="round"/>
<path d="M12.6663 9.33203L13.3329 9.33203" stroke="#1C212B" stroke-width="0.466667" stroke-linecap="round"/>
<path d="M7.99951 11.332L8.11386 11.2177" stroke="#1C212B" stroke-width="0.466667" stroke-linecap="round"/>
<path d="M11.885 7.44922L11.9994 7.3348" stroke="#1C212B" stroke-width="0.466667" stroke-linecap="round"/>
<path d="M11.9995 11.332L11.8852 11.2177" stroke="#1C212B" stroke-width="0.466667" stroke-linecap="round"/>
<path d="M8.11426 7.44922L7.99984 7.3348" stroke="#1C212B" stroke-width="0.466667" stroke-linecap="round"/>
</svg>
