<svg width="20" height="20" viewBox="0 0 20 20" fill="none" xmlns="http://www.w3.org/2000/svg">
<path d="M10.773 3.12263L15.5077 4.38521C15.9454 4.50195 16.25 4.8984 16.25 5.35145V9.7054C16.25 11.7115 15.2474 13.5849 13.5782 14.6977L10.5547 16.7134C10.2188 16.9373 9.7812 16.9373 9.4453 16.7134L6.4218 14.6977C4.75261 13.5849 3.75 11.7115 3.75 9.7054V5.35145C3.75 4.8984 4.05458 4.50195 4.49234 4.38521L9.22701 3.12263C9.73349 2.98757 10.2665 2.98757 10.773 3.12263Z" stroke="#1C212B" stroke-linecap="round"/>
<path d="M7.91667 9.5835L9.40656 11.0734C9.50419 11.171 9.66248 11.171 9.76011 11.0734L12.5 8.3335" stroke="#1C212B" stroke-linecap="round"/>
</svg>
