<svg width="20" height="20" viewBox="0 0 20 20" fill="none" xmlns="http://www.w3.org/2000/svg">
<path d="M12.3213 12.8555C12.7476 12.8555 13.1563 13.0248 13.4577 13.3262C13.7591 13.6276 13.9285 14.0364 13.9285 14.4626V15.5355L13.9228 15.6126C13.7013 17.1319 12.337 17.8619 10.0478 17.8619C7.76704 17.8619 6.38061 17.1405 6.08132 15.639L6.07132 15.534V14.4626C6.07132 14.0364 6.24065 13.6276 6.54205 13.3262C6.84344 13.0248 7.25223 12.8555 7.67847 12.8555H12.3213ZM12.3213 13.9269H7.67847C7.53639 13.9269 7.40013 13.9833 7.29966 14.0838C7.19919 14.1843 7.14275 14.3205 7.14275 14.4626V15.4769C7.34275 16.334 8.2499 16.7905 10.0478 16.7905C11.8449 16.7905 12.712 16.3398 12.857 15.4933V14.4626C12.857 14.3205 12.8006 14.1843 12.7001 14.0838C12.5997 13.9833 12.4634 13.9269 12.3213 13.9269ZM13.0313 8.56904L16.9642 8.56975C17.3904 8.56975 17.7992 8.73908 18.1006 9.04048C18.402 9.34187 18.5713 9.75066 18.5713 10.1769V11.2498L18.5656 11.3269C18.3442 12.8462 16.9799 13.5762 14.6906 13.5762L14.4656 13.574C14.2547 13.0656 13.8702 12.6485 13.3806 12.3969C13.7485 12.4683 14.1842 12.5048 14.6906 12.5048C16.4878 12.5048 17.3549 12.054 17.4999 11.2076V10.1769C17.4999 10.0348 17.4435 9.89856 17.343 9.79809C17.2425 9.69762 17.1063 9.64118 16.9642 9.64118H13.2142C13.2142 9.26547 13.1499 8.90404 13.0313 8.56904ZM3.03561 8.56975L6.96847 8.56904C6.8676 8.85438 6.80772 9.15259 6.79061 9.45475L6.78561 9.64118H3.03561C2.89353 9.64118 2.75727 9.69762 2.6568 9.79809C2.55634 9.89856 2.4999 10.0348 2.4999 10.1769V11.1912C2.6999 12.0483 3.60704 12.5048 5.4049 12.5048C5.84918 12.5048 6.23632 12.4769 6.57061 12.4226C6.10308 12.6767 5.73677 13.0833 5.53275 13.5748L5.40418 13.5762C3.12418 13.5762 1.73775 12.8548 1.43847 11.3533L1.42847 11.2483V10.1769C1.42847 9.75066 1.59779 9.34187 1.89919 9.04048C2.20059 8.73908 2.60937 8.56975 3.03561 8.56975ZM9.9999 7.14118C10.6629 7.14118 11.2988 7.40458 11.7677 7.87342C12.2365 8.34226 12.4999 8.97814 12.4999 9.64118C12.4999 10.3042 12.2365 10.9401 11.7677 11.4089C11.2988 11.8778 10.6629 12.1412 9.9999 12.1412C9.33685 12.1412 8.70097 11.8778 8.23213 11.4089C7.76329 10.9401 7.4999 10.3042 7.4999 9.64118C7.4999 8.97814 7.76329 8.34226 8.23213 7.87342C8.70097 7.40458 9.33685 7.14118 9.9999 7.14118ZM9.9999 8.21261C9.62101 8.21261 9.25765 8.36312 8.98974 8.63103C8.72183 8.89894 8.57132 9.2623 8.57132 9.64118C8.57132 10.0201 8.72183 10.3834 8.98974 10.6513C9.25765 10.9192 9.62101 11.0698 9.9999 11.0698C10.3788 11.0698 10.7421 10.9192 11.01 10.6513C11.278 10.3834 11.4285 10.0201 11.4285 9.64118C11.4285 9.2623 11.278 8.89894 11.01 8.63103C10.7421 8.36312 10.3788 8.21261 9.9999 8.21261ZM14.6428 2.85547C15.3058 2.85547 15.9417 3.11886 16.4105 3.5877C16.8794 4.05654 17.1428 4.69243 17.1428 5.35547C17.1428 6.01851 16.8794 6.65439 16.4105 7.12324C15.9417 7.59208 15.3058 7.85547 14.6428 7.85547C13.9797 7.85547 13.3438 7.59208 12.875 7.12324C12.4061 6.65439 12.1428 6.01851 12.1428 5.35547C12.1428 4.69243 12.4061 4.05654 12.875 3.5877C13.3438 3.11886 13.9797 2.85547 14.6428 2.85547ZM5.35704 2.85547C6.02008 2.85547 6.65596 3.11886 7.1248 3.5877C7.59365 4.05654 7.85704 4.69243 7.85704 5.35547C7.85704 6.01851 7.59365 6.65439 7.1248 7.12324C6.65596 7.59208 6.02008 7.85547 5.35704 7.85547C4.694 7.85547 4.05811 7.59208 3.58927 7.12324C3.12043 6.65439 2.85704 6.01851 2.85704 5.35547C2.85704 4.69243 3.12043 4.05654 3.58927 3.5877C4.05811 3.11886 4.694 2.85547 5.35704 2.85547ZM14.6428 3.9269C14.2639 3.9269 13.9005 4.07741 13.6326 4.34532C13.3647 4.61323 13.2142 4.97659 13.2142 5.35547C13.2142 5.73435 13.3647 6.09771 13.6326 6.36562C13.9005 6.63353 14.2639 6.78404 14.6428 6.78404C15.0216 6.78404 15.385 6.63353 15.6529 6.36562C15.9208 6.09771 16.0713 5.73435 16.0713 5.35547C16.0713 4.97659 15.9208 4.61323 15.6529 4.34532C15.385 4.07741 15.0216 3.9269 14.6428 3.9269ZM5.35704 3.9269C4.97816 3.9269 4.61479 4.07741 4.34689 4.34532C4.07898 4.61323 3.92847 4.97659 3.92847 5.35547C3.92847 5.73435 4.07898 6.09771 4.34689 6.36562C4.61479 6.63353 4.97816 6.78404 5.35704 6.78404C5.73592 6.78404 6.09928 6.63353 6.36719 6.36562C6.6351 6.09771 6.78561 5.73435 6.78561 5.35547C6.78561 4.97659 6.6351 4.61323 6.36719 4.34532C6.09928 4.07741 5.73592 3.9269 5.35704 3.9269Z" fill="#1C212B"/>
</svg>
