<svg width="20" height="20" viewBox="0 0 20 20" fill="none" xmlns="http://www.w3.org/2000/svg">
<path d="M10.0002 8.72745C12.0802 6.6362 17.2814 10.2949 10.0002 14.9999C2.71891 10.2949 7.92016 6.6362 10.0002 8.72745Z" fill="#1C212B"/>
<path d="M10.8839 1.8738C10.6494 1.63946 10.3316 1.50781 10.0001 1.50781C9.66865 1.50781 9.35076 1.63946 9.11635 1.8738L0.807604 10.1813C0.690411 10.2987 0.624639 10.4578 0.624756 10.6236C0.624873 10.7895 0.69087 10.9485 0.808229 11.0657C0.925587 11.1829 1.08469 11.2486 1.25055 11.2485C1.4164 11.2484 1.57541 11.1824 1.6926 11.065L2.5001 10.2575V16.8738C2.5001 17.3711 2.69765 17.848 3.04928 18.1996C3.40091 18.5513 3.87782 18.7488 4.3751 18.7488H15.6251C16.1224 18.7488 16.5993 18.5513 16.9509 18.1996C17.3026 17.848 17.5001 17.3711 17.5001 16.8738V10.2575L18.3076 11.065C18.4248 11.1824 18.5838 11.2484 18.7497 11.2485C18.9155 11.2486 19.0746 11.1829 19.192 11.0657C19.3093 10.9485 19.3753 10.7895 19.3755 10.6236C19.3756 10.4578 19.3098 10.2987 19.1926 10.1813L16.2501 7.24005V3.1238C16.2501 2.95804 16.1843 2.79906 16.067 2.68185C15.9498 2.56464 15.7909 2.4988 15.6251 2.4988H14.3751C14.2093 2.4988 14.0504 2.56464 13.9332 2.68185C13.816 2.79906 13.7501 2.95804 13.7501 3.1238V4.74005L10.8839 1.8738ZM16.2501 9.00755V16.8738C16.2501 17.0396 16.1843 17.1985 16.067 17.3157C15.9498 17.4329 15.7909 17.4988 15.6251 17.4988H4.3751C4.20934 17.4988 4.05037 17.4329 3.93316 17.3157C3.81595 17.1985 3.7501 17.0396 3.7501 16.8738V9.00755L10.0001 2.75755L16.2501 9.00755Z" fill="#1C212B"/>
</svg>
