<svg width="20" height="20" viewBox="0 0 20 20" fill="none" xmlns="http://www.w3.org/2000/svg">
<g clip-path="url(#clip0_13_3633)">
<path d="M18.7279 9.60426L10.3945 1.27093C10.2905 1.16745 10.1496 1.10937 10.0029 1.10938C9.8561 1.10938 9.7153 1.16745 9.61121 1.27093L1.27787 9.60426C1.18686 9.71054 1.1393 9.84725 1.1447 9.98707C1.1501 10.1269 1.20806 10.2595 1.30701 10.3585C1.40595 10.4574 1.53858 10.5154 1.6784 10.5208C1.81822 10.5262 1.95493 10.4786 2.06121 10.3876L10.0001 2.4487L17.939 10.3931C18.0453 10.4842 18.182 10.5317 18.3218 10.5263C18.4616 10.5209 18.5942 10.463 18.6932 10.364C18.7921 10.2651 18.8501 10.1324 18.8555 9.99262C18.8609 9.8528 18.8133 9.71609 18.7223 9.60982L18.7279 9.60426Z" fill="#1C212B"/>
<path d="M15.5555 17.7783H12.7777V12.2227H7.22214V17.7783H4.44436V10.0005L3.33325 11.1116V17.7783C3.33325 18.073 3.45032 18.3556 3.65869 18.564C3.86706 18.7723 4.14968 18.8894 4.44436 18.8894H8.33325V13.3339H11.6666V18.8894H15.5555C15.8502 18.8894 16.1328 18.7723 16.3411 18.564C16.5495 18.3556 16.6666 18.073 16.6666 17.7783V10.9783L15.5555 9.86719V17.7783Z" fill="#1C212B"/>
</g>
<defs>
<clipPath id="clip0_13_3633">
<rect width="20" height="20" fill="white"/>
</clipPath>
</defs>
</svg>
