<svg width="20" height="20" viewBox="0 0 20 20" fill="none" xmlns="http://www.w3.org/2000/svg">
<path d="M9.16675 8.75016H9.58341C9.81353 8.75016 10.0001 8.93671 10.0001 9.16683V12.5002C10.0001 12.7303 10.1866 12.9168 10.4167 12.9168H10.8334M10.0001 7.0835H10.0084" stroke="#1C212B" stroke-width="0.833333" stroke-linecap="round" stroke-linejoin="round"/>
<path d="M11.1577 16.5655C12.0199 16.4135 12.8437 16.0932 13.5821 15.6228C14.3205 15.1524 14.9589 14.5412 15.4611 13.824C15.9632 13.1069 16.3192 12.2978 16.5087 11.4431C16.6982 10.5884 16.7175 9.70469 16.5655 8.84251C16.4134 7.98033 16.0931 7.15654 15.6227 6.41816C15.1523 5.67979 14.5411 5.0413 13.8239 4.53915C13.1068 4.03699 12.2977 3.68101 11.443 3.49152C10.5883 3.30203 9.7046 3.28275 8.84243 3.43478C7.98025 3.5868 7.15645 3.90716 6.41808 4.37755C5.67971 4.84795 5.04122 5.45917 4.53907 6.17632C4.03691 6.89347 3.68093 7.70251 3.49144 8.55723C3.30195 9.41196 3.28267 10.2956 3.4347 11.1578C3.58672 12.02 3.90708 12.8438 4.37747 13.5822C4.84787 14.3205 5.45909 14.959 6.17624 15.4612C6.89339 15.9633 7.70243 16.3193 8.55715 16.5088C9.41188 16.6983 10.2956 16.7176 11.1577 16.5655L11.1577 16.5655Z" stroke="#1C212B" stroke-width="0.833333"/>
</svg>
