<svg width="20" height="20" viewBox="0 0 20 20" fill="none" xmlns="http://www.w3.org/2000/svg">
<path d="M4.10736 15.8924C5.2728 17.0578 6.75766 17.8515 8.37417 18.173C9.99067 18.4946 11.6662 18.3296 13.1889 17.6988C14.7117 17.0681 16.0132 16 16.9288 14.6296C17.8445 13.2592 18.3333 11.648 18.3333 9.99984C18.3333 8.35166 17.8445 6.7405 16.9288 5.37009C16.0132 3.99968 14.7117 2.93157 13.1889 2.30084C11.6662 1.67011 9.99068 1.50508 8.37417 1.82663C6.75766 2.14817 5.2728 2.94184 4.10736 4.10728" stroke="#1C212B"/>
<path d="M12.5 10.0002L12.8904 9.68782L13.1403 10.0002L12.8904 10.3125L12.5 10.0002ZM2.5 10.5002C2.22386 10.5002 2 10.2763 2 10.0002C2 9.72402 2.22386 9.50016 2.5 9.50016V10.5002ZM9.5571 5.52115L12.8904 9.68782L12.1096 10.3125L8.77623 6.14584L9.5571 5.52115ZM12.8904 10.3125L9.5571 14.4792L8.77623 13.8545L12.1096 9.68782L12.8904 10.3125ZM12.5 10.5002H2.5V9.50016H12.5V10.5002Z" fill="#1C212B"/>
</svg>
