<svg width="20" height="20" viewBox="0 0 20 20" fill="none" xmlns="http://www.w3.org/2000/svg">
<path d="M14.7559 11.4226L16.9627 13.6294C17.2594 13.9261 17.2594 14.4072 16.9627 14.704C15.3583 16.3083 12.8184 16.4888 11.0033 15.1275L9.69048 14.1429C8.23753 13.0532 6.94685 11.7625 5.85714 10.3095L4.87251 8.99668C3.51117 7.18156 3.69168 4.64166 5.29603 3.03731C5.59277 2.74056 6.07389 2.74056 6.37064 3.03731L8.57741 5.24408C8.90285 5.56951 8.90285 6.09715 8.57741 6.42259L7.72645 7.27355C7.59122 7.40878 7.55769 7.61538 7.64322 7.78644C8.63211 9.76421 10.2358 11.3679 12.2136 12.3568C12.3846 12.4423 12.5912 12.4088 12.7265 12.2735L13.5774 11.4226C13.9028 11.0972 14.4305 11.0972 14.7559 11.4226Z" stroke="#1C212B" stroke-width="0.833333"/>
</svg>
