<svg width="20" height="20" viewBox="0 0 20 20" fill="none" xmlns="http://www.w3.org/2000/svg">
<path d="M7.5 5C7.5 5.3283 7.56466 5.65339 7.6903 5.95671C7.81594 6.26002 8.00009 6.53562 8.23223 6.76777C8.46438 6.99991 8.73998 7.18406 9.04329 7.3097C9.34661 7.43534 9.6717 7.5 10 7.5C10.3283 7.5 10.6534 7.43534 10.9567 7.3097C11.26 7.18406 11.5356 6.99991 11.7678 6.76777C11.9999 6.53562 12.1841 6.26002 12.3097 5.95671C12.4353 5.65339 12.5 5.3283 12.5 5C12.5 4.67169 12.4353 4.3466 12.3097 4.04329C12.1841 3.73998 11.9999 3.46438 11.7678 3.23223C11.5356 3.00009 11.26 2.81594 10.9567 2.6903C10.6534 2.56466 10.3283 2.5 10 2.5C9.67169 2.5 9.3466 2.56466 9.04329 2.6903C8.73998 2.81594 8.46438 3.00009 8.23223 3.23223C8.00009 3.46438 7.81594 3.73998 7.6903 4.04329C7.56466 4.34661 7.5 4.6717 7.5 5L7.5 5Z" stroke="#1C212B" stroke-width="0.833333"/>
<path d="M3.69822 11.5844C3.4139 11.7486 3.16469 11.9671 2.96483 12.2276C2.76498 12.488 2.61837 12.7853 2.5334 13.1024C2.44843 13.4196 2.42675 13.7503 2.46961 14.0758C2.51246 14.4013 2.619 14.7152 2.78315 14.9995C2.94731 15.2838 3.16585 15.533 3.42631 15.7329C3.68678 15.9327 3.98405 16.0793 4.30117 16.1643C4.61829 16.2493 4.94904 16.271 5.27453 16.2281C5.60003 16.1852 5.9139 16.0787 6.19822 15.9146C6.48254 15.7504 6.73174 15.5319 6.9316 15.2714C7.13146 15.0109 7.27806 14.7137 7.36303 14.3965C7.448 14.0794 7.46968 13.7487 7.42683 13.4232C7.38398 13.0977 7.27743 12.7838 7.11328 12.4995C6.94913 12.2152 6.73058 11.966 6.47012 11.7661C6.20966 11.5662 5.91238 11.4196 5.59526 11.3347C5.27815 11.2497 4.9474 11.228 4.6219 11.2709C4.2964 11.3137 3.98254 11.4203 3.69822 11.5844L3.69822 11.5844Z" stroke="#1C212B" stroke-width="0.833333"/>
<path d="M16.3018 11.5844C16.5861 11.7486 16.8353 11.9671 17.0352 12.2276C17.235 12.488 17.3816 12.7853 17.4666 13.1024C17.5516 13.4196 17.5732 13.7503 17.5304 14.0758C17.4875 14.4013 17.381 14.7152 17.2168 14.9995C17.0527 15.2838 16.8341 15.533 16.5737 15.7329C16.3132 15.9327 16.0159 16.0793 15.6988 16.1643C15.3817 16.2493 15.051 16.271 14.7255 16.2281C14.4 16.1852 14.0861 16.0787 13.8018 15.9146C13.5175 15.7504 13.2683 15.5319 13.0684 15.2714C12.8685 15.0109 12.7219 14.7137 12.637 14.3965C12.552 14.0794 12.5303 13.7487 12.5732 13.4232C12.616 13.0977 12.7226 12.7838 12.8867 12.4995C13.0509 12.2152 13.2694 11.966 13.5299 11.7661C13.7903 11.5662 14.0876 11.4196 14.4047 11.3347C14.7219 11.2497 15.0526 11.228 15.3781 11.2709C15.7036 11.3137 16.0175 11.4203 16.3018 11.5844L16.3018 11.5844Z" stroke="#1C212B" stroke-width="0.833333"/>
<path fill-rule="evenodd" clip-rule="evenodd" d="M7.5022 5.10428C7.50075 5.0696 7.50003 5.03487 7.50003 5.00009C7.50003 4.71062 7.5503 4.42365 7.64831 4.1519C7.52759 4.19439 7.40791 4.24019 7.2894 4.28928C6.43001 4.64525 5.64915 5.16701 4.99141 5.82476C4.33366 6.4825 3.8119 7.26337 3.45593 8.12276C3.09996 8.98215 2.91675 9.90323 2.91675 10.8334C2.91675 11.2719 2.95745 11.7083 3.03777 12.1372C3.22411 11.9164 3.44751 11.7294 3.6982 11.5847C3.72832 11.5673 3.75876 11.5506 3.78952 11.5345C3.7633 11.3022 3.75008 11.0681 3.75008 10.8334C3.75008 10.0127 3.91174 9.19994 4.22583 8.44166C4.53992 7.68337 5.0003 6.99438 5.58066 6.41401C6.13384 5.86083 6.78571 5.41667 7.5022 5.10428ZM12.4979 5.10424C13.2144 5.41662 13.8663 5.8608 14.4195 6.41401C14.9999 6.99437 15.4602 7.68337 15.7743 8.44165C16.0884 9.19994 16.2501 10.0127 16.2501 10.8334C16.2501 11.0681 16.2369 11.3022 16.2106 11.5345C16.2414 11.5506 16.2718 11.5673 16.3018 11.5847C16.5526 11.7294 16.776 11.9165 16.9624 12.1373C17.0427 11.7084 17.0834 11.2719 17.0834 10.8334C17.0834 9.90323 16.9002 8.98214 16.5442 8.12275C16.1883 7.26336 15.6665 6.4825 15.0088 5.82475C14.351 5.167 13.5701 4.64525 12.7108 4.28928C12.5922 4.24017 12.4725 4.19436 12.3517 4.15186C12.4497 4.42362 12.5 4.71061 12.5 5.00009C12.5 5.03485 12.4993 5.06957 12.4979 5.10424ZM14.6109 16.2106C14.3265 16.1596 14.0527 16.0596 13.8018 15.9148C13.7718 15.8975 13.7422 15.8795 13.713 15.861C13.3055 16.162 12.862 16.4129 12.3919 16.6077C11.6336 16.9218 10.8208 17.0834 10.0001 17.0834C9.17932 17.0834 8.3666 16.9218 7.60831 16.6077C7.13814 16.4129 6.69462 16.1619 6.28711 15.861C6.25788 15.8795 6.22824 15.8975 6.1982 15.9148C5.94742 16.0596 5.67366 16.1596 5.3892 16.2105C5.95615 16.6967 6.59731 17.0909 7.28941 17.3776C8.1488 17.7335 9.06989 17.9168 10.0001 17.9168C10.9303 17.9168 11.8514 17.7335 12.7108 17.3776C13.4028 17.0909 14.044 16.6967 14.6109 16.2106Z" fill="#1C212B"/>
</svg>
